<?xml version="1.0" encoding="UTF-8" standalone="no"?>
<svg viewBox="0 0 232 254" version="1.1" xmlns="http://www.w3.org/2000/svg" xmlns:xlink="http://www.w3.org/1999/xlink">
    <g id="Whack-a-mole" stroke="none" stroke-width="1" fill-rule="evenodd">
        <g id="Start-screen-Copy-4" transform="translate(-72.000000, -192.000000)">
            <g id="Page-1" transform="translate(72.000000, 192.000000)">
                <path d="M85.2745018,44.6077168 C84.9291109,44.6634417 84.7508446,44.4572595 84.739703,43.9947427 C84.7285613,43.5294396 84.8566902,43.2090213 85.1185188,43.0307015 C85.3859182,42.8468093 85.8399401,42.5431085 86.4805844,42.1140266 C87.1184434,41.6877309 87.5641091,41.4035338 87.8120106,41.2530765 C88.0626975,41.1026192 88.4554404,40.8630021 88.9874537,40.5314388 C89.5166817,40.1998755 89.9484203,39.9602583 90.2770987,39.8153735 C90.6057771,39.6704887 91.0068762,39.4838102 91.4776106,39.2525518 C92.2603109,38.9126298 93.2435607,38.6451502 94.4273601,38.4584717 C95.6111595,38.2717932 96.8367401,38.4779754 98.0985309,39.0825908 C99.3658926,39.6899924 100.012108,40.6373161 100.039962,41.9357068 C100.098456,44.6216481 98.9759352,48.3691491 96.6751863,53.1782099 C94.3744373,57.9956294 91.3968337,63.0888873 87.7451607,68.4691285 C84.0934878,73.852156 79.9877929,79.3828545 75.4225054,85.0667966 C70.8572179,90.7479524 66.3949905,95.8857902 62.0274671,100.483096 C57.6627291,105.077616 53.5431072,108.925422 49.6686015,112.018155 C45.7913103,115.113675 42.7942088,116.827216 40.6772969,117.164352 C36.1983571,117.877631 33.9143206,116.242104 33.8251875,112.260559 C33.7026294,106.671349 36.76101,98.0841384 43.0003291,86.4989271 C30.7278112,103.065946 20.388368,114.146847 11.9875705,119.724912 C9.80380875,121.184905 8.12699173,122.006847 6.9599048,122.193526 C5.79281787,122.380204 4.34718991,121.903756 2.62859173,120.769754 C0.909993556,119.632966 0.0325893009,118.387514 0.00473519757,117.027826 C-0.162389422,109.340573 5.06304036,97.7163539 15.68381,82.1495969 C19.7337966,76.2093202 24.7948872,69.4888946 30.8726525,61.9827476 C25.5441626,67.4465762 21.460751,70.4055695 18.6168471,70.8569414 C17.1015838,71.0965586 15.9651364,70.5532406 15.2102902,69.2130562 C14.5222939,68.271305 14.1713322,67.3267676 14.1490489,66.3850164 C14.129551,65.4432652 14.7367705,64.3148355 15.9734926,63.0080861 C17.2102148,61.692978 17.9427778,61.0214926 18.1628252,60.9852714 C18.3828726,60.9490503 18.5945638,60.9936302 18.7839717,61.1190113 C18.9789504,61.2443923 19.0736543,61.3669872 19.0764398,61.489582 C18.6447012,62.021755 18.43301,62.3588908 18.4357954,62.4982031 C18.4385808,62.6375154 18.6279887,62.6765228 19.0095899,62.6180117 C19.3884057,62.553928 22.5024945,60.2859237 28.3602124,55.8112124 C34.2179303,51.3309287 37.4295084,49.0462069 37.9977322,48.957047 C39.6383388,48.6951399 41.2288081,48.8846046 42.7607838,49.5282275 C44.2955449,50.1634916 45.069889,50.7848244 45.083816,51.3894399 C45.0977431,51.9884828 44.7997042,52.8327153 44.1896993,53.9221376 C43.5769091,55.0087735 39.9280215,60.4447397 33.2374659,70.2272498 C26.5469103,80.0125461 21.6891547,87.3849533 18.6614136,92.3416851 C15.6336726,97.2956307 13.4248422,101.31897 12.0349224,104.408917 C10.6450027,107.490505 9.95979173,109.343359 9.97371878,109.961906 C9.98486043,110.580452 10.0851352,110.870222 10.2745431,110.839573 C11.6003984,110.630605 16.2603899,105.963642 24.2461613,96.8414726 C32.2347182,87.7220891 39.8388884,78.7503766 47.0558866,69.9402664 C54.2756702,61.1245838 58.2003133,56.2514393 58.829816,55.3124744 C59.4565334,54.3762957 60.1473151,53.6685892 60.8965905,53.1949273 C61.6486513,52.7184792 62.7795279,52.3618397 64.2975765,52.1194363 C68.5258294,51.447951 70.6566683,51.8993229 70.6928787,53.4763382 C70.7068057,54.1227473 69.812689,55.6440377 68.0133139,58.0346368 C66.2111534,60.4308085 64.9437917,62.1666398 64.2084434,63.2393446 C60.370148,68.7784018 56.1223972,76.3876399 51.4735474,86.0809901 C46.8246975,95.7715541 44.526734,101.867861 44.5824422,104.36991 C44.5963692,105.046967 44.8303437,105.350668 45.2927218,105.278226 C45.7495291,105.205783 47.0865261,104.119147 49.3037127,102.015532 C51.5236847,99.9119158 54.4427948,96.8303276 58.0582574,92.7735533 C61.67372,88.7112065 65.7794148,83.7489022 70.3697711,77.8727091 C74.9629127,72.0048748 79.3248653,65.6020813 83.4695559,58.6726872 C87.6086756,51.7405069 89.661523,47.4719778 89.6253127,45.8671001 C89.5918878,44.2622223 88.9401018,43.5600883 87.6783109,43.760698 L85.2745018,44.6077168 Z" id="Fill-1"></path>
                <path d="M120.568158,89.6014121 C120.82163,90.9861764 120.95533,92.0895299 120.974827,92.9086862 C120.988755,93.7222701 120.85784,94.4578391 120.568158,95.1098207 C120.28126,95.759016 119.637831,96.7146984 118.637868,97.9712954 C117.63512,99.2334649 116.437394,100.526283 115.039118,101.863681 C111.62699,105.098513 108.103446,107.009878 104.476842,107.586631 C99.2681247,108.414146 96.6136287,106.575223 96.5161393,102.069863 C96.4297916,98.1468289 99.7444299,89.7797319 106.465625,76.9741447 C106.707956,76.5004829 106.87508,76.1661334 106.964213,75.9655236 C104.571546,78.0217733 100.022971,83.3017097 93.3212737,91.819264 C86.616791,100.334032 82.1629199,106.31053 79.9596603,109.759903 C79.7730378,110.069176 79.3078743,110.450892 78.5585989,110.910622 C77.8065381,111.370353 77.2188165,111.637833 76.7926488,111.707489 C76.3692664,111.774359 75.9068883,111.713061 75.4110852,111.529169 C74.9152822,111.34249 74.6061016,111.258903 74.4779728,111.281193 C74.0713029,111.348063 73.8596117,111.250544 73.8540409,110.988637 C73.8512554,110.723944 74.3804834,109.213798 75.4445102,106.463774 C76.5085369,103.70539 77.9123837,100.267162 79.658836,96.1463042 C84.4469564,84.7895651 91.6110317,69.8692172 101.153848,51.3769017 C104.493555,44.9016658 107.117411,40.2681385 109.019846,37.4874649 C110.373556,35.5092302 112.688232,34.2582057 115.972231,33.7343914 C116.665798,33.6229415 117.064111,33.7622539 117.167172,34.1495421 C117.270232,34.534044 117.328725,34.9603397 117.339867,35.4228565 C117.348223,35.8853734 117.261876,36.3646077 117.083609,36.8577733 L112.186858,45.3948314 C102.485274,62.3017727 95.2042111,76.1912096 90.3408846,87.0631419 C95.1373612,80.4151587 99.8224214,75.1324361 104.390494,71.2121878 C107.220471,68.7547187 109.354096,67.4061756 110.788582,67.1777034 C112.223068,66.9492312 113.532211,66.9659487 114.707654,67.2306421 C115.885883,67.489763 116.493102,68.4733079 116.532098,70.1701317 C116.546025,70.7886784 115.568346,73.2377887 113.604632,77.5118902 C107.710703,90.3453398 104.774881,97.4168324 104.80552,98.7263681 C104.833375,100.041476 105.398813,100.60987 106.504621,100.437123 C108.114588,100.180789 110.557393,98.2554925 113.838606,94.6668075 C116.312051,91.9502176 117.87188,90.2143862 118.523666,89.4593136 C118.894126,89.1221778 119.236731,88.9299268 119.554268,88.8797744 C120.155917,88.785042 120.492951,89.0246592 120.568158,89.6014121" id="Fill-3"></path>
                <path d="M146.488072,69.033622 C141.092732,69.8917858 135.566478,73.7173017 129.920451,80.4962384 C127.91217,82.9230588 126.084941,85.7371674 124.427622,88.9413504 C122.770303,92.1511059 121.954178,94.2909429 121.976461,95.3720064 C122.00153,96.4558562 122.330208,96.9434492 122.962496,96.8431444 C123.845471,96.7038321 126.268778,94.6057887 130.235203,90.5518006 C134.201627,86.4978126 136.828269,83.5666817 138.117914,81.7472629 C139.532902,79.7300208 142.323884,75.4893542 146.488072,69.033622 M152.674468,62.8927355 C155.072707,62.5110198 156.289931,63.123994 156.323356,64.7288717 C156.342854,65.5953943 156.153446,66.2613071 155.749561,66.7266102 C155.348462,67.1946995 154.501698,68.6658375 153.212053,71.151169 C151.916837,73.630928 150.496277,76.7682412 148.950375,80.5631084 C147.401687,84.3524031 146.421222,87.5398686 146.000625,90.11436 C145.914277,90.4403508 145.872496,90.8805777 145.886423,91.4350407 C145.922634,93.1318645 146.418437,93.906441 147.362691,93.7559837 C148.30973,93.6027401 149.421109,92.989766 150.696827,91.9003438 C151.96976,90.816494 153.100636,89.6936368 154.089457,88.528986 C155.078277,87.3643351 156.042029,86.1801805 156.983498,84.9793084 C157.919396,83.7756501 158.48762,83.0818748 158.671457,82.8979826 C158.855294,82.7113041 159.139406,82.5887093 159.518222,82.5301981 C160.11987,82.4354657 160.49033,82.8255402 160.635171,83.7032077 C160.782798,84.5753027 160.86636,85.4919777 160.885858,86.4504464 C160.908141,87.408915 160.824579,88.0859728 160.646313,88.484406 C159.768908,90.3901984 157.802409,92.8253775 154.749599,95.7899433 C151.691218,98.7517229 148.894667,100.437402 146.354372,100.838621 C143.811293,101.245413 141.92557,100.785683 140.691633,99.4622157 C139.460482,98.1387488 138.825408,96.5617335 138.783627,94.7255973 C138.744631,92.8894611 139.023172,91.2260722 139.624821,89.7354305 C137.07617,93.4857178 134.131992,96.7874194 130.789499,99.6405355 C127.447007,102.496438 124.703378,104.092957 122.555826,104.435665 C120.41106,104.775587 118.64511,104.418948 117.257976,103.371319 C115.48924,102.070142 114.57284,100.027824 114.514347,97.2332188 C114.450282,94.438614 115.029648,91.5242005 116.246872,88.5011235 C117.461311,85.472474 119.085205,82.6277167 121.118555,79.9640654 C123.149119,77.3059867 125.39416,74.8178689 127.845321,72.5080709 C132.995544,67.6627889 137.780879,64.8876877 142.201325,64.1855537 C143.905997,63.9152879 145.298702,63.973799 146.385012,64.3555147 C147.471322,64.7400167 148.167674,65.3307009 148.468499,66.1164223 C149.201062,64.8876877 149.824994,64.0852489 150.340294,63.7063194 C150.85281,63.3301762 151.632725,63.0571241 152.674468,62.8927355" id="Fill-5"></path>
                <path d="M187.379845,82.3800194 C188.984242,81.1039187 190.017629,80.2346099 190.482793,79.7720931 C190.947956,79.3095762 191.491111,78.7662582 192.109472,78.1421391 C192.730619,77.51802 193.243134,77.1725255 193.65816,77.1056556 C194.287663,77.0053507 194.619127,77.6573323 194.649766,79.0616003 C194.680406,80.4686546 194.011907,82.0930361 192.641486,83.9403173 C191.271064,85.7820259 189.558036,87.4342699 187.499618,88.8886903 C185.4412,90.3458971 183.23794,91.6805089 180.887054,92.8897398 C176.221492,95.3360638 172.235569,96.821133 168.940429,97.3449473 C165.639718,97.8687616 162.642616,97.2836499 159.943554,95.5896122 C157.247276,93.8983609 155.862928,91.3461594 155.784936,87.9330079 C155.712515,84.5226427 156.503572,80.9757514 158.166462,77.2867616 C159.826566,73.600558 161.996401,70.2487039 164.670395,67.2367718 C167.344389,64.2248398 170.469619,61.6308447 174.048872,59.4520002 C177.628124,57.2703695 181.185093,55.8995364 184.719779,55.339501 C186.42445,55.0664488 187.967567,55.3032798 189.346345,56.0444212 C190.722338,56.7855627 191.429832,57.9920073 191.468828,59.6581824 C191.502253,61.3243576 190.70284,63.4586221 189.065019,66.0581897 C187.429983,68.6549711 185.742024,70.0926741 184.006714,70.3685125 C181.984506,70.691717 180.953904,69.9087819 180.914908,68.0280657 C180.903766,67.5321139 181.355003,66.5792178 182.276974,65.1610185 C183.193374,63.7483917 183.650181,62.8149993 183.639039,62.3664136 C183.630683,61.917828 183.452417,61.7227908 183.104241,61.7757295 C181.36893,62.0543541 179.519418,62.9348079 177.558489,64.4282358 C175.594774,65.9160912 173.812112,67.4373816 172.216072,68.9865344 C170.617246,70.544046 169.110339,72.2408699 167.695351,74.077006 C164.611901,78.0669105 163.116136,81.9425788 163.196913,85.7095835 C163.230338,87.2225152 163.75678,88.4484635 164.776241,89.3874284 C165.792915,90.3263933 167.475303,90.605018 169.828975,90.231661 C172.179861,89.8610902 174.536318,89.2146811 176.88999,88.3007924 C179.246447,87.3813312 181.182307,86.48416 182.700356,85.6092787 C184.215619,84.7343974 185.778235,83.6589064 187.379845,82.3800194" id="Fill-7"></path>
                <path d="M192.958744,92.9262396 L189.911505,92.7562786 C188.995105,92.8092172 188.226332,92.3578454 187.6024,91.402163 C187.438061,91.1514008 187.32943,91.0009435 187.282078,90.9424324 C187.23194,90.8922799 187.209657,90.814265 187.206871,90.7223189 C187.204086,90.6303728 187.23194,90.496633 187.293219,90.315527 C187.351713,90.134421 187.443631,89.8892313 187.563404,89.5743855 C187.680391,89.262326 187.789022,88.9419076 187.87537,88.6214893 C188.490946,86.3228363 193.802723,75.1332719 203.813488,55.0444375 C213.829823,34.9611756 219.074751,24.5991263 219.551056,23.9471447 C220.027361,23.3007356 220.381109,22.8270738 220.612298,22.5233729 C220.843487,22.2252446 221.10253,21.9549787 221.403354,21.7237203 C221.695822,21.4896756 221.91587,21.3336458 222.05514,21.2472722 C222.197196,21.1664711 222.481308,21.0188 222.90469,20.8126178 C223.325287,20.6036494 223.765382,20.3918947 224.219404,20.1634225 C224.673426,19.9349503 225.152516,19.6507532 225.64832,19.3080449 C226.146908,18.9653366 226.492299,18.7257195 226.678921,18.5864072 C226.868329,18.4498811 227.107875,18.3551487 227.408699,18.3077826 C227.709523,18.2576301 227.99642,18.3523625 228.272176,18.5864072 C228.542361,18.8232381 228.687202,19.1575876 228.695558,19.592242 L228.703915,19.9154466 C228.556288,20.5284207 224.606576,28.4942983 216.849208,43.8242244 C209.09184,59.1513643 204.866373,67.5351788 204.167235,68.9784543 C206.61004,67.6299112 210.186507,64.6904215 214.904992,60.1627716 C219.617906,55.6351217 221.985505,52.7485707 222.007788,51.5086912 C222.030071,50.2632392 222.442312,49.299198 223.250081,48.6137815 C224.05785,47.9311512 224.943611,47.5076418 225.907363,47.3571845 C226.868329,47.203941 227.698382,47.3906194 228.391949,47.91722 C229.08273,48.438248 229.428121,49.4217929 229.430907,50.8622821 C229.430907,52.3027713 228.648206,54.2559298 227.085591,56.7189714 C225.522976,59.1847992 223.645609,61.5308184 221.445135,63.7709603 C216.701582,68.5521586 212.737943,71.8482878 209.545862,73.6565615 C212.250496,80.0092026 215.258739,82.9208298 218.573377,82.3970155 C220.367182,81.8648425 222.545372,80.0788588 225.110735,77.036278 C226.066131,75.9245658 226.993673,74.8072811 227.885004,73.6899965 C228.779121,72.5699255 229.327847,71.9040127 229.528396,71.6866855 C229.728946,71.4693583 230.021414,71.330046 230.397444,71.2687486 C230.996307,71.1740162 231.372338,71.5640907 231.517179,72.438972 C231.664806,73.3138532 231.748368,74.2305282 231.767866,75.1889969 C231.787364,76.1474655 231.706587,76.8245233 231.528321,77.2229565 C230.648131,79.1008864 228.689988,81.5249205 225.651105,84.4978451 C222.612222,87.4763422 219.707039,89.1870973 216.924414,89.6273242 C214.941202,89.9449562 213.350733,89.8251477 212.166933,89.2678984 C210.983134,88.7134355 210.055592,88.2397736 209.381523,87.8496992 C208.704668,87.462411 208.011101,86.8995893 207.300822,86.1584478 C206.587757,85.4256651 205.99725,84.8154772 205.526515,84.3278841 C205.055781,83.8458635 204.515411,83.1576607 203.913763,82.2632757 C203.309329,81.3688907 202.874805,80.7308404 202.612976,80.3546971 C202.348362,79.9813402 201.963975,79.357221 201.454245,78.4934847 C200.944515,77.6297484 200.657618,77.1560866 200.593554,77.0724992 C200.050399,78.30402 199.443179,79.6386319 198.780251,81.0791211 C198.114538,82.5168241 197.510104,83.851436 196.966949,85.085743 C196.423794,86.3200501 195.925206,87.4429072 195.471184,88.4571008 C195.019947,89.4740807 194.649488,90.315527 194.365376,90.9814398 C194.075693,91.6473526 193.91971,91.9956334 193.889071,92.0318546 C193.67738,92.5612413 193.365414,92.8621559 192.958744,92.9262396" id="Fill-9"></path>
                <path d="M69.5628377,151.573377 L69.3260778,151.612384 C68.6937897,151.773986 68.0698578,151.701544 67.4459258,151.400629 C66.8219939,151.094142 66.5016717,150.651129 66.4877447,150.063231 C66.4793884,149.47812 66.6298006,148.929229 66.9529082,148.408201 C67.2732304,147.895532 67.4849216,147.380076 67.5824109,146.872979 C67.6826857,146.357524 68.234197,145.557871 69.2425155,144.468449 C70.2480486,143.379027 71.105955,142.73819 71.8134492,142.548726 C72.5209435,142.356475 73.7743781,142.058346 75.5681824,141.648768 C77.3675574,141.241976 79.1613617,140.824039 80.9607368,140.397744 C82.754541,139.974234 84.4898517,139.62874 86.1638833,139.36126 C87.8379149,139.09378 88.8072377,139.029697 89.0802079,139.155078 C89.3531781,139.283245 89.6623587,139.653816 90.0077495,140.261217 C90.3559258,140.874192 90.6706772,141.311632 90.9631453,141.573539 C91.252828,141.838233 91.4088109,142.317467 91.4255234,143.014029 C91.4394505,143.705018 91.1664802,144.354213 90.6121836,144.953256 C90.0523161,145.552299 89.420028,145.964663 88.7125337,146.18199 C88.0050395,146.407676 87.2084122,146.638935 86.3282225,146.889697 C85.4452474,147.137673 84.4619976,147.402366 83.3756875,147.683777 C82.2893775,147.965188 81.2559903,148.246599 80.2838821,148.522437 C79.306203,148.803848 78.1892535,149.16606 76.9330334,149.614646 C74.5097264,150.464451 72.0557799,151.116432 69.5628377,151.573377" id="Fill-11"></path>
                <path d="M122.719609,131.511847 C117.324269,132.370011 111.798015,136.189955 106.151988,142.971678 C104.143707,145.398498 102.316478,148.20982 100.659159,151.419576 C98.9990541,154.626545 98.1857143,156.769168 98.2079976,157.847446 C98.2330663,158.931295 98.5589593,159.421675 99.1940328,159.318584 C100.074222,159.182058 102.500315,157.084014 106.466739,153.030026 C110.433164,148.976038 113.059805,146.042121 114.352236,144.225488 C115.764439,142.20546 118.552635,137.964793 122.719609,131.511847 M128.906005,125.370961 C131.304243,124.989245 132.521467,125.602219 132.554892,127.207097 C132.57439,128.07362 132.384982,128.739533 131.981098,129.204836 C131.579999,129.672925 130.733234,131.144063 129.443589,133.623822 C128.151159,136.109154 126.727814,139.24368 125.181911,143.041334 C123.633223,146.830629 122.652759,150.015308 122.232162,152.592585 C122.145814,152.918576 122.104033,153.356017 122.11796,153.91048 C122.15417,155.607304 122.649973,156.38188 123.594227,156.228637 C124.541267,156.078179 125.652646,155.467991 126.928364,154.378569 C128.201296,153.291933 129.332173,152.169076 130.320993,151.004425 C131.309814,149.839774 132.273566,148.658406 133.215035,147.454748 C134.153718,146.251089 134.719156,145.5601 134.902993,145.376208 C135.08683,145.18953 135.370942,145.066935 135.749758,145.008424 C136.348621,144.913691 136.721866,145.303766 136.866708,146.178647 C137.014334,147.053528 137.097897,147.967417 137.117395,148.925886 C137.139678,149.884354 137.056116,150.564198 136.877849,150.962632 C136.00323,152.868424 134.033945,155.300817 130.97835,158.265383 C127.922755,161.229948 125.126203,162.915627 122.585909,163.316847 C120.042829,163.720852 118.157106,163.263908 116.92317,161.940441 C115.692018,160.616974 115.056945,159.037173 115.015164,157.203823 C114.976168,155.367687 115.254709,153.701511 115.856357,152.21087 C113.307707,155.963943 110.363528,159.262859 107.021036,162.115975 C103.678543,164.971877 100.934914,166.571182 98.7873629,166.911104 C96.642597,167.253813 94.8766468,166.897173 93.4895125,165.846758 C91.7207769,164.545581 90.8043769,162.500477 90.7458833,159.708658 C90.6818188,156.914053 91.2583988,154.002426 92.4784085,150.973776 C93.6928474,147.950699 95.3167416,145.103156 97.3500912,142.442291 C99.3806553,139.781426 101.625696,137.293308 104.076857,134.986296 C109.227081,130.141014 114.012416,127.365913 118.432862,126.663779 C120.137533,126.393513 121.533024,126.449238 122.619334,126.83374 C123.705644,127.218242 124.399211,127.80614 124.700035,128.594648 C125.432598,127.365913 126.05653,126.560688 126.569046,126.184545 C127.084347,125.805615 127.864261,125.53535 128.906005,125.370961" id="Fill-13"></path>
                <path d="M139.82927,140.412232 L139.59251,140.448453 C138.960222,140.610055 138.33629,140.540399 137.709573,140.239485 C137.088426,139.932998 136.768104,139.487198 136.754177,138.8993 C136.745821,138.314189 136.896233,137.765298 137.219341,137.24427 C137.539663,136.731601 137.751354,136.216145 137.848843,135.709049 C137.949118,135.193593 138.500629,134.39394 139.508948,133.304518 C140.514481,132.215096 141.372387,131.577046 142.079882,131.384795 C142.787376,131.19533 144.04081,130.894415 145.834615,130.484837 C147.63399,130.078045 149.427794,129.660108 151.227169,129.233813 C153.020973,128.810303 154.753499,128.464809 156.430316,128.197329 C158.104347,127.932636 159.07367,127.865766 159.34664,127.991147 C159.616825,128.119314 159.928791,128.489885 160.274182,129.097287 C160.619573,129.710261 160.93711,130.147701 161.229578,130.412395 C161.51926,130.674302 161.675243,131.156322 161.68917,131.850098 C161.705883,132.543873 161.432913,133.190282 160.875831,133.789325 C160.315963,134.391154 159.68646,134.800732 158.978966,135.01806 C158.268686,135.243745 157.474844,135.47779 156.594655,135.725766 C155.71168,135.973742 154.72843,136.238435 153.64212,136.522632 C152.553024,136.804043 151.522423,137.082668 150.550314,137.358506 C149.572635,137.639917 148.455686,138.002129 147.199466,138.450715 C144.776159,139.30052 142.322212,139.952501 139.82927,140.412232" id="Fill-15"></path>
                <path d="M31.3152542,235.169119 L28.992222,235.447743 L28.1398864,235.581483 C27.8223497,235.539689 27.4797442,235.408736 27.1092846,235.188622 C26.7416105,234.968509 26.460284,234.809693 26.2680907,234.720533 C26.0758974,234.623014 25.9756226,234.414046 25.9700518,234.090841 C25.9616956,233.767637 26.0758974,233.185311 26.3098719,232.338293 C32.1787314,218.117292 37.8943934,206.58502 43.4652141,197.738688 C44.0780044,196.774647 45.0807521,195.955491 46.4762427,195.286792 C47.8717333,194.61252 49.2337989,194.172293 50.5568688,193.963325 C51.3451399,193.837944 51.7545953,194.375689 51.7824494,195.582134 C51.7908056,195.922056 51.6738184,196.395718 51.4342731,197.008692 C51.1919424,197.61888 50.5819375,198.655363 49.5986877,200.11257 C48.6182232,201.566991 47.4511363,203.238738 46.1002123,205.127813 C44.7437174,207.016888 43.9777296,208.095165 43.7911071,208.37379 C48.0221454,203.302822 51.8576554,199.418795 55.2976372,196.718922 C58.7404044,194.016264 61.2417029,192.545126 62.8043181,192.294364 C64.3669333,192.046388 65.5758013,192.29715 66.4309223,193.043864 C67.2860433,193.790578 67.7261381,194.668245 67.7484214,195.668508 C67.7707047,196.674342 67.7149965,197.518575 67.589653,198.206778 C67.4615241,198.892194 67.2191934,199.624977 66.8543047,200.410698 C66.4922013,201.19642 66.1802354,201.865119 65.9239776,202.416796 C65.6649345,202.971259 65.2304105,203.706828 64.6176202,204.623503 C64.0020445,205.540178 63.5814475,206.175442 63.3530439,206.523722 C63.1218548,206.869217 62.6455497,207.532343 61.9241284,208.515888 C61.1999217,209.496647 60.8071788,210.037179 60.7458998,210.143056 C61.6121624,209.137221 62.8154597,207.663297 64.3557916,205.710139 C65.8989089,203.762553 67.202481,202.129812 68.2637223,200.814704 C69.3277491,199.499596 70.664746,197.995023 72.2747132,196.300985 C73.8846804,194.601375 75.3888019,193.194321 76.7926488,192.071464 C80.154639,189.430103 83.58905,187.833584 87.0903108,187.276334 C88.2908226,187.084083 89.3074974,187.293052 90.1459059,187.906026 C90.9843144,188.516214 91.4132676,189.340943 91.4355509,190.37464 C91.4606196,191.408337 90.2322536,194.083134 87.7643801,198.39067 C85.2909357,202.703779 82.8258475,207.028033 80.3746864,211.369004 C77.9179545,215.709976 76.7035156,218.390345 76.7257989,219.407324 C76.753653,220.825524 77.0433357,221.62239 77.5864907,221.80071 C78.1296457,221.97903 78.7786463,221.976243 79.5362779,221.792351 C80.2911241,221.611245 81.3440092,220.96205 82.6977187,219.850338 C84.0542135,218.741412 85.2519399,217.615768 86.304825,216.490125 C88.0094962,214.673492 89.5860384,212.920943 91.0372372,211.229692 C91.3464178,210.900915 91.6918086,210.708664 92.0706244,210.647367 C92.6694877,210.552634 93.0427326,210.945495 93.1903594,211.81759 C93.3352007,212.695258 93.418763,213.609146 93.4410463,214.564829 C93.4633296,215.523297 93.3769819,216.203141 93.1987156,216.604361 C92.3213114,218.476718 90.3464554,220.911897 87.2769333,223.909898 C84.2074111,226.905113 81.2353782,228.632585 78.3636202,229.08953 C78.0154439,229.145255 77.7619716,229.170331 77.6032032,229.164758 C74.3442731,229.37094 72.0797345,228.858271 70.8012311,227.618392 C69.5227278,226.381298 68.8598001,224.773634 68.818019,222.798186 C68.7734524,220.82831 69.408526,218.323475 70.7176688,215.294825 C72.0323825,212.266176 73.4835813,209.47993 75.0740506,206.936087 C76.6645199,204.389458 78.1296457,202.090805 79.4610719,200.034555 C80.7952834,197.978306 81.4582111,196.874952 81.4554257,196.721709 C81.4526402,196.568465 81.3245114,196.509954 81.071039,196.551748 C80.09336,196.704991 77.948594,198.594066 74.6395266,202.221758 C68.9767874,208.415584 64.1023193,214.302922 60.0105515,219.8782 C58.9325977,221.352124 56.3867326,225.052259 52.3673855,230.989749 C51.9077928,231.683525 51.1640883,232.107034 50.1390573,232.271423 C49.1112409,232.435811 48.0416433,232.413521 46.9274791,232.201767 C45.8161004,231.992798 45.2534475,231.577647 45.2395205,230.959101 C45.2339497,230.652614 47.646115,225.921568 52.4843728,216.771536 C57.3198451,207.627076 59.729225,202.675917 59.7125126,201.918058 C59.6958001,201.162985 59.2222804,200.859284 58.2919533,201.004169 C57.3616263,201.154626 55.4731181,202.815229 52.6264287,205.994336 C44.8049965,214.732003 38.7801539,223.14368 34.5546864,231.215435 C34.2789308,231.69467 33.7413466,232.460887 32.9419339,233.516875 C32.1425211,234.575648 31.6021515,235.124539 31.3152542,235.169119" id="Fill-17"></path>
                <path d="M117.034586,192.044716 L116.703122,192.097655 C115.597314,192.273188 115.029091,191.57384 114.998451,190.002397 C112.706058,191.105751 110.321747,192.785857 107.834376,195.03993 C105.352575,197.294004 103.143745,199.843419 101.207884,202.690962 C97.2776705,208.394408 95.3223125,213.000073 95.3362395,216.494025 C95.3752353,218.224284 96.0381629,218.984929 97.3333787,218.778747 C98.6285945,218.572565 100.533815,217.43299 103.054612,215.36281 C105.575408,213.289842 108.054423,210.511955 110.497228,207.023575 C112.940033,203.537981 114.761691,200.56227 115.953847,198.093656 C117.154359,195.625042 117.744866,193.983943 117.725368,193.164787 C117.708655,192.34563 117.477466,191.97506 117.034586,192.044716 M121.683436,185.126467 C122.630475,184.97601 123.608154,185.237917 124.622044,185.914974 C125.633148,186.589246 126.15959,187.784546 126.198586,189.498087 C126.237582,191.208842 125.669358,193.529785 124.499486,196.45813 C123.326828,199.386474 121.700148,202.434628 119.613876,205.597017 C117.530389,208.764979 115.226855,211.796415 112.708844,214.685752 C110.190833,217.583448 107.458345,220.063207 104.508596,222.125029 C101.558846,224.186851 98.8709252,225.415586 96.439262,225.800087 C94.0103842,226.187376 92.0438845,225.747149 90.5425483,224.482193 C89.0439976,223.217237 88.2640827,221.250148 88.2028036,218.578138 C88.1470954,215.9117 88.7543149,212.849616 90.024462,209.39467 C91.2946091,205.939725 92.9602845,202.799626 95.0214881,199.982731 C97.0799064,197.157477 99.3221617,194.563482 101.739898,192.200746 C106.795418,187.33596 111.268787,184.59708 115.148863,183.978533 C116.884174,183.705481 118.204458,183.911663 119.106931,184.605439 C119.424468,184.833911 119.588807,185.056811 119.594378,185.271352 L119.599949,185.549976 C120.040044,185.416236 120.736396,185.276924 121.683436,185.126467" id="Fill-19"></path>
                <path d="M157.706034,152.776199 C157.697677,152.313682 157.533338,152.1075 157.215801,152.157652 C156.112779,152.333186 153.274446,155.882864 148.709158,162.803899 C144.141085,169.724934 140.845945,175.191549 138.829308,179.192598 C136.809885,183.204793 134.929733,188.130876 133.188852,193.984779 C136.818241,189.069841 141.826409,181.516328 148.207784,171.315881 C154.586374,161.11822 157.756171,154.938326 157.706034,152.776199 M163.697451,145.434441 C164.870109,146.133788 165.474543,147.345805 165.513539,149.076064 C165.549749,150.803537 164.627778,153.665012 162.753197,157.668847 C160.878616,161.66711 158.608507,165.807472 155.94844,170.087146 C153.285587,174.36682 150.263417,178.944623 146.8875,183.817767 C141.545083,191.544027 136.408786,198.543078 131.47861,204.806559 C131.456327,205.179916 131.336554,205.887622 131.122077,206.932465 C130.907601,207.974521 130.810111,209.002646 130.83518,210.022412 C130.854678,211.039391 131.356052,211.880838 132.339302,212.541178 C133.316981,213.207091 134.520278,213.432777 135.940837,213.204305 C137.358611,212.978619 138.871089,212.24305 140.475485,210.997598 C142.079882,209.752146 143.467016,208.431465 144.642459,207.035556 C147.728694,203.354925 149.650627,201.454705 150.408258,201.334896 C151.16589,201.212301 151.569775,202.279434 151.617127,204.533507 L151.636624,205.458541 C151.664479,206.664985 151.463929,207.578874 151.03219,208.205779 C148.4529,211.805609 145.519863,214.64758 142.23865,216.734479 C138.960222,218.818591 135.834992,220.097478 132.86853,220.571139 C129.902068,221.042015 127.623602,220.515414 126.038703,218.982979 C124.453805,217.45333 123.629324,215.146318 123.559688,212.059158 C123.425989,206.035293 124.921754,198.699107 128.044199,190.039455 C131.163858,181.382588 134.726398,173.868082 138.737389,167.50151 C147.767689,153.116121 154.747928,145.531959 159.669748,144.75181 C161.185011,144.509407 162.524793,144.737879 163.697451,145.434441" id="Fill-21"></path>
                <path d="M178.757051,176.709496 C178.801617,178.746242 177.996634,180.674324 176.3421,182.482598 C174.684781,184.293658 172.785131,185.369149 170.640365,185.709071 C169.944012,185.823307 169.481634,185.731361 169.256016,185.444377 C169.027612,185.154608 168.90784,184.747816 168.896698,184.221215 C168.882771,183.697401 168.938479,183.176373 169.052681,182.66649 C167.921804,183.215381 166.673941,183.987171 165.303519,184.979074 C163.927526,185.970978 162.247924,187.386391 160.261926,189.219741 C158.273143,191.053091 157.289893,192.340337 157.306606,193.081478 C157.312177,193.329454 157.685422,193.393538 158.426341,193.276515 C159.170045,193.159493 160.306493,192.722052 161.844039,191.96698 C163.3788,191.211907 164.453969,190.785611 165.069544,190.688093 C165.687905,190.587788 166.089004,190.554353 166.281198,190.585002 C166.693439,190.738245 167.14746,191.142251 167.637693,191.78866 C168.127925,192.440641 168.373041,192.975601 168.381397,193.387965 C168.392539,193.808688 167.994225,194.41609 167.189242,195.226888 C166.384258,196.037685 165.462287,196.703598 164.4289,197.224626 C163.395513,197.742868 162.704731,198.124584 162.362125,198.361414 C155.782986,203.067384 152.507344,206.096034 152.537983,207.455722 C152.588121,209.860252 154.716174,210.732347 158.913787,210.066434 C161.596138,209.637352 164.278488,208.375183 166.958053,206.27714 C169.228162,204.496728 171.272653,202.719103 173.085955,200.958196 C174.899257,199.200075 176.049632,198.113439 176.531508,197.692715 C177.013384,197.274778 177.381058,197.049093 177.63453,197.007299 C178.453441,196.876345 178.88518,197.706647 178.924175,199.498203 C178.960386,201.289759 178.876823,202.490631 178.667918,203.09246 C178.461797,203.702648 177.846222,204.502301 176.821191,205.499777 C170.183558,211.944364 163.849535,215.650072 157.821907,216.605754 C154.601972,217.118423 152.017111,217.093347 150.07568,216.533312 C146.504784,215.521904 144.685911,213.393212 144.613491,210.152808 C144.521572,205.895424 147.465751,202.189717 153.446027,199.038472 C152.234373,198.704123 151.446102,198.152446 151.081214,197.391801 C150.716325,196.631156 150.51299,195.346696 150.47678,193.541209 C150.434998,191.735721 151.253909,189.682258 152.930726,187.386391 C154.604758,185.096097 156.674318,183.101144 159.142191,181.407107 C164.632235,177.58995 169.55684,175.335877 173.913222,174.644888 C174.954966,174.477713 176.018992,174.558514 177.099732,174.881718 C178.186042,175.204923 178.737553,175.815111 178.757051,176.709496" id="Fill-23"></path>
                <path d="M168.866074,24.9339172 C168.866074,26.5555124 167.554146,27.8678343 165.933037,27.8678343 C164.314714,27.8678343 163,26.5555124 163,24.9339172 C163,23.3123219 164.314714,22 165.933037,22 C167.554146,22 168.866074,23.3123219 168.866074,24.9339172" id="Fill-27"></path>
                <path d="M36.8660742,151.933917 C36.8660742,153.555512 35.5541459,154.867834 33.9330371,154.867834 C32.3147137,154.867834 31,153.555512 31,151.933917 C31,150.312322 32.3147137,149 33.9330371,149 C35.5541459,149 36.8660742,150.312322 36.8660742,151.933917" id="Fill-29"></path>
                <path d="M145.810291,249.906317 C145.810291,252.062872 144.061053,253.812634 141.905145,253.812634 C139.749238,253.812634 138,252.062872 138,249.906317 C138,247.749763 139.749238,246 141.905145,246 C144.061053,246 145.810291,247.749763 145.810291,249.906317 L142.282676,249.690422" id="Fill-31"></path>
                <g id="Group" transform="translate(203.218147, 123.000000)">
                    <path d="M6.34398079,7.32433307 C5.98744827,7.32433307 5.63091574,7.18780701 5.35794553,6.91754114 L0.965353435,2.52363103 C0.422198419,1.98031304 0.422198419,1.09985927 0.965353435,0.553755029 C1.51129386,0.010437038 2.39148353,0.010437038 2.93463854,0.553755029 L7.33001605,4.9448789 C7.87317106,5.49098313 7.87317106,6.3714369 7.33001605,6.91754114 C7.05704584,7.18780701 6.70051331,7.32433307 6.34398079,7.32433307" id="Fill-33"></path>
                    <path d="M11.5365427,8.22763406 C11.1800102,8.22763406 10.8234777,8.091108 10.5505075,7.82084213 C10.0073525,7.27473789 10.0073525,6.39428412 10.5505075,5.84817988 L13.9988455,2.40159345 C14.5420005,1.85827546 15.4249756,1.85827546 15.9681306,2.40159345 C16.5112856,2.94491144 16.5112856,3.82815146 15.9681306,4.37146945 L12.522578,7.82084213 C12.2496078,8.091108 11.8930753,8.22763406 11.5365427,8.22763406" id="Fill-35"></path>
                    <path d="M16.2859459,17.8814196 C15.9294134,17.8814196 15.5728809,17.7448935 15.2999106,17.4746276 L10.9073185,13.0779313 C10.3641635,12.5346133 10.3641635,11.6541595 10.9073185,11.1080553 C11.453259,10.5647373 12.3334486,10.5647373 12.8766036,11.1080553 L17.2719812,15.5019654 C17.8151362,16.0480696 17.8151362,16.9285234 17.2719812,17.4746276 C16.9990109,17.7448935 16.6424784,17.8814196 16.2859459,17.8814196" id="Fill-37"></path>
                    <path d="M3.25384657,16.0338598 C2.89731404,16.0338598 2.54078152,15.8973337 2.26781131,15.6270678 C1.72465629,15.0809636 1.72465629,14.2005098 2.26781131,13.6544056 L5.7161493,10.2078192 C6.25930432,9.66450118 7.14227939,9.66450118 7.68543441,10.2078192 C8.22858942,10.7511372 8.22858942,11.6343772 7.68543441,12.1776952 L4.23988182,15.6270678 C3.96691161,15.8973337 3.61037909,16.0338598 3.25384657,16.0338598" id="Fill-39"></path>
                </g>
                <path d="M48.7859936,7.17806654 C48.4294611,7.17806654 48.0729286,7.04154048 47.7999584,6.7712746 L43.4073663,2.37736449 C42.8642112,1.8340465 42.8642112,0.95359273 43.4073663,0.407488493 C43.9533067,-0.135829498 44.8334964,-0.135829498 45.3766514,0.407488493 L49.7720289,4.79861236 C50.3151839,5.3447166 50.3151839,6.22517037 49.7720289,6.7712746 C49.4990587,7.04154048 49.1425261,7.17806654 48.7859936,7.17806654" id="Fill-41"></path>
                <path d="M54.3934015,8.23352911 C54.036869,8.23352911 53.6803365,8.09700305 53.4073663,7.82673717 C52.8642112,7.28063294 52.8642112,6.40017917 53.4073663,5.85407493 L56.8557043,2.40748849 C57.3988593,1.8641705 58.2818343,1.8641705 58.8249894,2.40748849 C59.3681444,2.95080648 59.3681444,3.8340465 58.8249894,4.37736449 L55.3794368,7.82673717 C55.1064666,8.09700305 54.749934,8.23352911 54.3934015,8.23352911" id="Fill-43"></path>
                <path d="M58.7859936,18.1808528 C58.4294611,18.1808528 58.0729286,18.0443267 57.7999584,17.7740609 L53.4073663,13.3773645 C52.8642112,12.8340465 52.8642112,11.9535927 53.4073663,11.4074885 C53.9533067,10.8641705 54.8334964,10.8641705 55.3766514,11.4074885 L59.7720289,15.8013986 C60.3151839,16.3475028 60.3151839,17.2279566 59.7720289,17.7740609 C59.4990587,18.0443267 59.1425261,18.1808528 58.7859936,18.1808528" id="Fill-45"></path>
                <path d="M45.3934015,16.2335291 C45.036869,16.2335291 44.6803365,16.097003 44.4073663,15.8267372 C43.8642112,15.2806329 43.8642112,14.4001792 44.4073663,13.8540749 L47.8557043,10.4074885 C48.3988593,9.8641705 49.2818343,9.8641705 49.8249894,10.4074885 C50.3681444,10.9508065 50.3681444,11.8340465 49.8249894,12.3773645 L46.3794368,15.8267372 C46.1064666,16.097003 45.749934,16.2335291 45.3934015,16.2335291" id="Fill-47"></path>
            </g>
        </g>
    </g>
</svg>
