<svg viewBox="0 0 226 257" version="1.1" xmlns="http://www.w3.org/2000/svg" xmlns:xlink="http://www.w3.org/1999/xlink">
  <defs>
    <path id="path-1" d="M6.65381117,0.716895859 L0.0108204582,0.716895859 L0.0108204582,7.3622337 L6.65381117,7.3622337 L6.65381117,0.716895859 L6.65381117,0.716895859 Z"></path>
    <path id="path-3" d="M4.5207819e-20,0.696913497 L4.5207819e-20,20.1195908 L19.4109456,20.1195908 L19.4109456,0.696913497 L0,0.696913497 L4.5207819e-20,0.696913497 Z"></path>
  </defs>
  <g id="Whack-a-mole" stroke="none" stroke-width="1" fill="none" fill-rule="evenodd">
    <g id="Winner" transform="translate(-74.000000, -220.000000)">
      <g id="Page-1" transform="translate(74.134855, 219.898778)">
        <path d="M201.504881,54.9426387 C199.646869,54.9426387 197.768843,55.4132296 196.050932,56.4078117 C193.515764,57.8696471 191.704452,60.2292765 190.950573,63.0561592 C190.193358,65.8830419 190.580305,68.833413 192.044699,71.3665936 C195.060215,76.5931559 201.768405,78.3987564 206.995522,75.3749597 C212.219304,72.3545007 214.017273,65.6460777 211.001756,60.4161778 C208.976957,56.9051027 205.290955,54.9426387 201.504881,54.9426387 M201.554917,83.5151804 C195.460505,83.5151804 189.526209,80.3512078 186.263847,74.7041174 C183.912144,70.6256633 183.288359,65.8763668 184.505908,61.3306594 C185.723456,56.7816143 188.6389,52.9801747 192.715184,50.6272203 C201.124605,45.7677856 211.922423,48.6580813 216.779272,57.078654 C221.636122,65.4925516 218.740692,76.2961163 210.331271,81.1555511 C207.565935,82.754225 204.540412,83.5151804 201.554917,83.5151804" id="orange-o" fill="#F9A41A"></path>
        <path d="M218.578241,126.539868 C219.051917,124.767643 220.873236,123.716323 222.644518,124.190251 C224.415801,124.66418 225.469897,126.486468 224.992885,128.258693 C224.519209,130.030918 222.69789,131.085575 220.926608,130.60831 C219.155326,130.134381 218.104565,128.312093 218.578241,126.539868" id="red" fill="#ED1E24"></path>
        <g id="blue_smal" transform="translate(166.787413, 0.126817)">
          <mask id="mask-2" fill="white">
            <use xlink:href="#path-1"></use>
          </mask>
          <g id="Clip-6"></g>
          <path d="M0.12442341,3.17898721 C0.598099665,1.40676204 2.41941822,0.355442026 4.19070055,0.829370413 C5.96198288,1.3032988 7.01607934,3.12558683 6.53906733,4.89781199 C6.06539108,6.67003716 4.24407252,7.7246947 2.47279019,7.24742879 C0.701507861,6.7735004 -0.349252844,4.95121238 0.12442341,3.17898721" id="Fill-5" fill="#4990CD" mask="url(#mask-2)"></path>
        </g>
        <path d="M40.5450195,88.0435328 C40.0713432,89.815758 38.2500247,90.867078 36.4787424,90.3931496 C34.70746,89.9192212 33.6533636,88.0969332 34.1303756,86.324708 C34.6040518,84.5524828 36.4253704,83.4978253 38.1966527,83.9750912 C39.967935,84.4490196 41.0186958,86.2713076 40.5450195,88.0435328" id="orange" fill="#F9A41A"></path>
        <path d="M49.3127002,227.068423 C49.7863765,225.296198 51.6076951,224.244878 53.3789774,224.718806 C55.1502597,225.192734 56.2043562,227.015022 55.7273442,228.787248 C55.2536679,230.559473 53.4323494,231.61413 51.661067,231.136864 C49.8897847,230.662936 48.839024,228.840648 49.3127002,227.068423" id="brown" fill="#8D5626"></path>
        <path d="M159.027129,194.167113 C159.263967,193.282669 160.17129,192.758678 161.055264,192.995642 C161.939237,193.232606 162.466285,194.140412 162.229447,195.024856 C161.992609,195.9093 161.08195,196.433291 160.197976,196.196327 C159.314003,195.959363 158.790291,195.051556 159.027129,194.167113" id="black" fill="#010201"></path>
        <path d="M114.519574,240.206252 C111.927697,240.206252 109.819505,242.315567 109.819505,244.908823 C109.819505,247.502079 111.927697,249.608056 114.519574,249.608056 C117.11145,249.608056 119.219643,247.502079 119.219643,244.908823 C119.219643,242.315567 117.11145,240.206252 114.519574,240.206252 M114.519574,256.283104 C108.251703,256.283104 103.148008,251.18003 103.148008,244.908823 C103.148008,238.634278 108.251703,233.531204 114.519574,233.531204 C120.787445,233.531204 125.89114,238.634278 125.89114,244.908823 C125.89114,251.18003 120.787445,256.283104 114.519574,256.283104" id="purple-o" fill="#99509F"></path>
        <g id="green-o" transform="translate(0.000000, 53.527199)">
          <mask id="mask-4" fill="white">
            <use xlink:href="#path-3"></use>
          </mask>
          <g id="Clip-17"></g>
          <path d="M9.69268375,4.03606333 C8.40508492,4.03606333 7.15084357,4.42655363 6.07339687,5.17749649 C4.67571835,6.14871594 3.74170883,7.60721386 3.43815574,9.27931331 C3.1379384,10.9547503 3.50820646,12.6468749 4.4789092,14.0452974 C5.44961195,15.4403824 6.90399819,16.374889 8.57854383,16.6786037 L8.58187957,16.6786037 C10.2564252,16.9823184 11.9443138,16.6085157 13.3386566,15.6406338 C14.7363351,14.6694143 15.6703446,13.2109164 15.970562,11.5354794 C16.2741151,9.86004247 15.903847,8.16791787 14.9331443,6.7728329 C13.9624415,5.3744104 12.5080553,4.43990372 10.8335097,4.13952657 C10.4532344,4.06943857 10.0696233,4.03606333 9.69268375,4.03606333 M9.72937698,20.1195908 C9.14895678,20.1195908 8.56853658,20.0661904 7.98811638,19.9627272 C5.4396047,19.5021489 3.21799636,18.0803637 1.73692412,15.947686 C0.259187641,13.8183458 -0.304553817,11.2417773 0.155779444,8.68857159 C0.616112705,6.13870336 2.04047722,3.91591248 4.16868461,2.43738941 C6.29689201,0.955528815 8.86875393,0.394824807 11.4239371,0.852065575 C13.9724488,1.31264387 16.1940571,2.73776655 17.6717936,4.86710678 C19.1495301,6.996447 19.7132716,9.57301541 19.256274,12.1262212 C18.7959408,14.6760894 17.3715763,16.8988803 15.2433689,18.3807409 C13.598845,19.522174 11.6874612,20.1195908 9.72937698,20.1195908" id="Fill-16" fill="#65C4B4" mask="url(#mask-4)"></path>
        </g>
        <g id="yellow-x" transform="translate(98.000000, 16.000000)" fill="#FAE200">
          <path d="M8.484757,15.8539824 C6.64342395,15.8539824 5.14900873,14.3587717 5.14900873,12.5164585 L5.14900873,3.8789468 C5.14900873,2.03329611 6.64342395,0.541422944 8.484757,0.541422944 C10.32609,0.541422944 11.8205053,2.03329611 11.8205053,3.8789468 L11.8205053,12.5164585 C11.8205053,14.3587717 10.32609,15.8539824 8.484757,15.8539824" id="Fill-19"></path>
          <path d="M12.8008817,11.5335578 L4.16796516,11.5335578 C2.32329637,11.5335578 0.83221689,10.0383471 0.83221689,8.19603391 C0.83221689,6.35372074 2.32329637,4.85851005 4.16796516,4.85851005 L12.8008817,4.85851005 C14.6422147,4.85851005 16.13663,6.35372074 16.13663,8.19603391 C16.13663,10.0383471 14.6422147,11.5335578 12.8008817,11.5335578" id="Fill-21"></path>
        </g>
        <g id="orange-x" transform="translate(3.000000, 176.000000)" fill="#F9A41A">
          <path d="M10.9861253,21.8794404 C9.1447923,21.8794404 7.65037708,20.3842297 7.65037708,18.5419166 L7.65037708,3.94024968 C7.65037708,2.09793652 9.1447923,0.602725828 10.9861253,0.602725828 C12.8274584,0.602725828 14.3218736,2.09793652 14.3218736,3.94024968 L14.3218736,18.5419166 C14.3218736,20.3842297 12.8274584,21.8794404 10.9861253,21.8794404" id="Fill-23"></path>
          <path d="M18.2830747,14.578607 L3.68917601,14.578607 C1.84784296,14.578607 0.353427736,13.0833963 0.353427736,11.2410831 C0.353427736,9.39876995 1.84784296,7.90355926 3.68917601,7.90355926 L18.2830747,7.90355926 C20.1244077,7.90355926 21.618823,9.39876995 21.618823,11.2410831 C21.618823,13.0833963 20.1244077,14.578607 18.2830747,14.578607" id="Fill-25"></path>
        </g>
        <g id="blue-x" transform="translate(204.000000, 156.000000)" fill="#4990CD">
          <path d="M11.2434936,21.9227165 C9.40216054,21.9227165 7.90774532,20.4275058 7.90774532,18.5851927 L7.90774532,3.98352578 C7.90774532,2.14121261 9.40216054,0.646001925 11.2434936,0.646001925 C13.0848266,0.646001925 14.5792419,2.14121261 14.5792419,3.98352578 L14.5792419,18.5851927 C14.5792419,20.4275058 13.0848266,21.9227165 11.2434936,21.9227165" id="Fill-27"></path>
          <path d="M18.5404429,14.6218831 L3.94654425,14.6218831 C2.1052112,14.6218831 0.610795978,13.1266724 0.610795978,11.2843592 C0.610795978,9.44204605 2.1052112,7.94683536 3.94654425,7.94683536 L18.5404429,7.94683536 C20.381776,7.94683536 21.8761912,9.44204605 21.8761912,11.2843592 C21.8761912,13.1266724 20.381776,14.6218831 18.5404429,14.6218831" id="Fill-29"></path>
        </g>
      </g>
    </g>
  </g>
</svg>
